# xmcd CD database file
#
# Track frame offsets:
#	150
#	19125
#	42225
#	64275
#	99750
#	117225
#	133800
#	151950
#	176325
#	195450
#	226650
#	247650
#	265275
#	288225
#	317550
#
# Disc length: 4474 seconds
#
# Revision: 2
# Processed by: cddbd v1.5.2PL0 Copyright (c) Steve Scherf et al.
# Submitted via: CDex 1.70beta3
#
DISCID=bd11780f
DTITLE=高中正義 - TAKANAKA BEST ON THE BEACH
DYEAR=1992
DGENRE=Fusion
TTITLE0=OH! TENGO SUERTE
TTITLE1=BLUE LAGOON
TTITLE2=EARLY BIRD
TTITLE3=Beleza Pula
TTITLE4=Ride'em High
TTITLE5=Saudade
TTITLE6=ようこそ夏の王国へ
TTITLE7=空ド白ソ
TTITLE8=JUMPING TAKE OFF
TTITLE9=READY TO FLY
TTITLE10=SWEET AGNES
TTITLE11=EYELANDS
TTITLE12=RADIO RIO
TTITLE13=TROPIC BIRDS
TTITLE14=MAMBO NO.5
EXTD=YEAR: 1992
EXTT0=
EXTT1=
EXTT2=
EXTT3=
EXTT4=
EXTT5=
EXTT6=
EXTT7=
EXTT8=
EXTT9=
EXTT10=
EXTT11=
EXTT12=
EXTT13=
EXTT14=
PLAYORDER=
